<?xml version="1.0" encoding="UTF-8" standalone="no"?>
<!DOCTYPE svg PUBLIC "-//W3C//DTD SVG 1.1//EN"
 "http://www.w3.org/Graphics/SVG/1.1/DTD/svg11.dtd">
<!-- Generated by graphviz version 2.38.0 (20140413.2041)
 -->
<!-- Title: snakemake_dag Pages: 1 -->
<svg width="527pt" height="476pt"
 viewBox="0.00 0.00 526.50 476.00" xmlns="http://www.w3.org/2000/svg" xmlns:xlink="http://www.w3.org/1999/xlink">
<g id="graph0" class="graph" transform="scale(1 1) rotate(0) translate(4 472)">
<title>snakemake_dag</title>
<polygon fill="white" stroke="none" points="-4,4 -4,-472 522.5,-472 522.5,4 -4,4"/>
<!-- 0 -->
<g id="node1" class="node"><title>0</title>
<path fill="none" stroke="#9fd856" stroke-width="2" d="M235.5,-36C235.5,-36 205.5,-36 205.5,-36 199.5,-36 193.5,-30 193.5,-24 193.5,-24 193.5,-12 193.5,-12 193.5,-6 199.5,-0 205.5,-0 205.5,-0 235.5,-0 235.5,-0 241.5,-0 247.5,-6 247.5,-12 247.5,-12 247.5,-24 247.5,-24 247.5,-30 241.5,-36 235.5,-36"/>
<text text-anchor="middle" x="220.5" y="-15.5" font-family="sans" font-size="10.00">all</text>
</g>
<!-- 1 -->
<g id="node2" class="node"><title>1</title>
<path fill="none" stroke="#d85656" stroke-width="2" d="M43,-180C43,-180 12,-180 12,-180 6,-180 0,-174 0,-168 0,-168 0,-156 0,-156 0,-150 6,-144 12,-144 12,-144 43,-144 43,-144 49,-144 55,-150 55,-156 55,-156 55,-168 55,-168 55,-174 49,-180 43,-180"/>
<text text-anchor="middle" x="27.5" y="-159.5" font-family="sans" font-size="10.00">kraken2</text>
</g>
<!-- 1&#45;&gt;0 -->
<g id="edge1" class="edge"><title>1&#45;&gt;0</title>
<path fill="none" stroke="grey" stroke-width="2" d="M31.959,-143.86C37.9796,-123.95 50.5647,-91.3661 72.5,-72 103.885,-44.2914 150.797,-30.7595 183.36,-24.3636"/>
<polygon fill="grey" stroke="grey" stroke-width="2" points="184.183,-27.7711 193.39,-22.5288 182.924,-20.8854 184.183,-27.7711"/>
</g>
<!-- 9 -->
<g id="node10" class="node"><title>9</title>
<path fill="none" stroke="#c6d856" stroke-width="2" d="M142.5,-108C142.5,-108 104.5,-108 104.5,-108 98.5,-108 92.5,-102 92.5,-96 92.5,-96 92.5,-84 92.5,-84 92.5,-78 98.5,-72 104.5,-72 104.5,-72 142.5,-72 142.5,-72 148.5,-72 154.5,-78 154.5,-84 154.5,-84 154.5,-96 154.5,-96 154.5,-102 148.5,-108 142.5,-108"/>
<text text-anchor="middle" x="123.5" y="-87.5" font-family="sans" font-size="10.00">summary</text>
</g>
<!-- 1&#45;&gt;9 -->
<g id="edge19" class="edge"><title>1&#45;&gt;9</title>
<path fill="none" stroke="grey" stroke-width="2" d="M51.2303,-143.697C63.437,-134.796 78.4853,-123.823 91.6844,-114.199"/>
<polygon fill="grey" stroke="grey" stroke-width="2" points="94.0247,-116.824 100.043,-108.104 89.9004,-111.168 94.0247,-116.824"/>
</g>
<!-- 2 -->
<g id="node3" class="node"><title>2</title>
<path fill="none" stroke="#56d8c9" stroke-width="2" d="M115.5,-180C115.5,-180 85.5,-180 85.5,-180 79.5,-180 73.5,-174 73.5,-168 73.5,-168 73.5,-156 73.5,-156 73.5,-150 79.5,-144 85.5,-144 85.5,-144 115.5,-144 115.5,-144 121.5,-144 127.5,-150 127.5,-156 127.5,-156 127.5,-168 127.5,-168 127.5,-174 121.5,-180 115.5,-180"/>
<text text-anchor="middle" x="100.5" y="-159.5" font-family="sans" font-size="10.00">quast</text>
</g>
<!-- 2&#45;&gt;0 -->
<g id="edge7" class="edge"><title>2&#45;&gt;0</title>
<path fill="none" stroke="grey" stroke-width="2" d="M90.2002,-143.721C80.2681,-124.567 68.7375,-93.5397 83.5,-72 105.746,-39.5411 150.946,-26.9561 183.348,-22.0796"/>
<polygon fill="grey" stroke="grey" stroke-width="2" points="183.919,-25.5346 193.373,-20.7517 183,-18.5952 183.919,-25.5346"/>
</g>
<!-- 2&#45;&gt;9 -->
<g id="edge20" class="edge"><title>2&#45;&gt;9</title>
<path fill="none" stroke="grey" stroke-width="2" d="M106.185,-143.697C108.748,-135.898 111.833,-126.509 114.685,-117.829"/>
<polygon fill="grey" stroke="grey" stroke-width="2" points="118.084,-118.697 117.88,-108.104 111.433,-116.512 118.084,-118.697"/>
</g>
<!-- 3 -->
<g id="node4" class="node"><title>3</title>
<path fill="none" stroke="#567bd8" stroke-width="2" d="M422.5,-108C422.5,-108 390.5,-108 390.5,-108 384.5,-108 378.5,-102 378.5,-96 378.5,-96 378.5,-84 378.5,-84 378.5,-78 384.5,-72 390.5,-72 390.5,-72 422.5,-72 422.5,-72 428.5,-72 434.5,-78 434.5,-84 434.5,-84 434.5,-96 434.5,-96 434.5,-102 428.5,-108 422.5,-108"/>
<text text-anchor="middle" x="406.5" y="-87.5" font-family="sans" font-size="10.00">abricate</text>
</g>
<!-- 3&#45;&gt;0 -->
<g id="edge9" class="edge"><title>3&#45;&gt;0</title>
<path fill="none" stroke="grey" stroke-width="2" d="M378.331,-75.7445C375.365,-74.4428 372.381,-73.1717 369.5,-72 331.797,-56.6683 287.796,-41.3208 257.434,-31.1168"/>
<polygon fill="grey" stroke="grey" stroke-width="2" points="258.283,-27.7102 247.689,-27.861 256.065,-34.3495 258.283,-27.7102"/>
</g>
<!-- 4 -->
<g id="node5" class="node"><title>4</title>
<path fill="none" stroke="#d8a456" stroke-width="2" d="M458,-252C458,-252 419,-252 419,-252 413,-252 407,-246 407,-240 407,-240 407,-228 407,-228 407,-222 413,-216 419,-216 419,-216 458,-216 458,-216 464,-216 470,-222 470,-228 470,-228 470,-240 470,-240 470,-246 464,-252 458,-252"/>
<text text-anchor="middle" x="438.5" y="-231.5" font-family="sans" font-size="10.00">amrfinder</text>
</g>
<!-- 4&#45;&gt;0 -->
<g id="edge2" class="edge"><title>4&#45;&gt;0</title>
<path fill="none" stroke="grey" stroke-width="2" d="M445.523,-215.743C457.332,-183.626 476.789,-114.128 443.5,-72 420.738,-43.1948 314.94,-28.3795 257.629,-22.3517"/>
<polygon fill="grey" stroke="grey" stroke-width="2" points="257.825,-18.8537 247.523,-21.327 257.119,-25.818 257.825,-18.8537"/>
</g>
<!-- 5 -->
<g id="node6" class="node"><title>5</title>
<path fill="none" stroke="#d8c356" stroke-width="2" d="M187.5,-180C187.5,-180 157.5,-180 157.5,-180 151.5,-180 145.5,-174 145.5,-168 145.5,-168 145.5,-156 145.5,-156 145.5,-150 151.5,-144 157.5,-144 157.5,-144 187.5,-144 187.5,-144 193.5,-144 199.5,-150 199.5,-156 199.5,-156 199.5,-168 199.5,-168 199.5,-174 193.5,-180 187.5,-180"/>
<text text-anchor="middle" x="172.5" y="-159.5" font-family="sans" font-size="10.00">mlst</text>
</g>
<!-- 5&#45;&gt;0 -->
<g id="edge3" class="edge"><title>5&#45;&gt;0</title>
<path fill="none" stroke="grey" stroke-width="2" d="M178.29,-143.871C186.507,-119.564 201.632,-74.8187 211.369,-46.0132"/>
<polygon fill="grey" stroke="grey" stroke-width="2" points="214.803,-46.7835 214.69,-36.1893 208.172,-44.5419 214.803,-46.7835"/>
</g>
<!-- 5&#45;&gt;9 -->
<g id="edge18" class="edge"><title>5&#45;&gt;9</title>
<path fill="none" stroke="grey" stroke-width="2" d="M160.388,-143.697C154.632,-135.474 147.638,-125.483 141.294,-116.421"/>
<polygon fill="grey" stroke="grey" stroke-width="2" points="144.075,-114.29 135.473,-108.104 138.34,-118.304 144.075,-114.29"/>
</g>
<!-- 6 -->
<g id="node7" class="node"><title>6</title>
<path fill="none" stroke="#56a2d8" stroke-width="2" d="M506.5,-324C506.5,-324 476.5,-324 476.5,-324 470.5,-324 464.5,-318 464.5,-312 464.5,-312 464.5,-300 464.5,-300 464.5,-294 470.5,-288 476.5,-288 476.5,-288 506.5,-288 506.5,-288 512.5,-288 518.5,-294 518.5,-300 518.5,-300 518.5,-312 518.5,-312 518.5,-318 512.5,-324 506.5,-324"/>
<text text-anchor="middle" x="491.5" y="-303.5" font-family="sans" font-size="10.00">prokka</text>
</g>
<!-- 6&#45;&gt;0 -->
<g id="edge8" class="edge"><title>6&#45;&gt;0</title>
<path fill="none" stroke="grey" stroke-width="2" d="M495.45,-287.998C504.226,-245.514 520.414,-133.714 464.5,-72 437.192,-41.86 318.823,-27.4292 257.558,-21.8716"/>
<polygon fill="grey" stroke="grey" stroke-width="2" points="257.794,-18.3789 247.527,-20.9948 257.184,-25.3524 257.794,-18.3789"/>
</g>
<!-- 7 -->
<g id="node8" class="node"><title>7</title>
<path fill="none" stroke="#56d8a2" stroke-width="2" d="M348.5,-108C348.5,-108 260.5,-108 260.5,-108 254.5,-108 248.5,-102 248.5,-96 248.5,-96 248.5,-84 248.5,-84 248.5,-78 254.5,-72 260.5,-72 260.5,-72 348.5,-72 348.5,-72 354.5,-72 360.5,-78 360.5,-84 360.5,-84 360.5,-96 360.5,-96 360.5,-102 354.5,-108 348.5,-108"/>
<text text-anchor="middle" x="304.5" y="-87.5" font-family="sans" font-size="10.00">kraken2_unmapped</text>
</g>
<!-- 7&#45;&gt;0 -->
<g id="edge6" class="edge"><title>7&#45;&gt;0</title>
<path fill="none" stroke="grey" stroke-width="2" d="M283.736,-71.6966C273.259,-62.9655 260.389,-52.2405 249,-42.7503"/>
<polygon fill="grey" stroke="grey" stroke-width="2" points="250.948,-39.8174 241.025,-36.1043 246.467,-45.195 250.948,-39.8174"/>
</g>
<!-- 8 -->
<g id="node9" class="node"><title>8</title>
<path fill="none" stroke="#78d856" stroke-width="2" d="M293.5,-180C293.5,-180 229.5,-180 229.5,-180 223.5,-180 217.5,-174 217.5,-168 217.5,-168 217.5,-156 217.5,-156 217.5,-150 223.5,-144 229.5,-144 229.5,-144 293.5,-144 293.5,-144 299.5,-144 305.5,-150 305.5,-156 305.5,-156 305.5,-168 305.5,-168 305.5,-174 299.5,-180 293.5,-180"/>
<text text-anchor="middle" x="261.5" y="-159.5" font-family="sans" font-size="10.00">print_coverage</text>
</g>
<!-- 8&#45;&gt;0 -->
<g id="edge5" class="edge"><title>8&#45;&gt;0</title>
<path fill="none" stroke="grey" stroke-width="2" d="M253.344,-143.632C248.792,-133.425 243.292,-120.175 239.5,-108 233.168,-87.667 228.237,-64.0726 224.986,-46.288"/>
<polygon fill="grey" stroke="grey" stroke-width="2" points="228.409,-45.5423 223.226,-36.3019 221.515,-46.7578 228.409,-45.5423"/>
</g>
<!-- 8&#45;&gt;9 -->
<g id="edge21" class="edge"><title>8&#45;&gt;9</title>
<path fill="none" stroke="grey" stroke-width="2" d="M227.741,-143.876C208.366,-134.048 183.924,-121.65 163.578,-111.329"/>
<polygon fill="grey" stroke="grey" stroke-width="2" points="165.052,-108.153 154.551,-106.75 161.885,-114.395 165.052,-108.153"/>
</g>
<!-- 9&#45;&gt;0 -->
<g id="edge4" class="edge"><title>9&#45;&gt;0</title>
<path fill="none" stroke="grey" stroke-width="2" d="M147.478,-71.6966C159.811,-62.796 175.016,-51.8232 188.353,-42.1989"/>
<polygon fill="grey" stroke="grey" stroke-width="2" points="190.737,-44.7944 196.798,-36.1043 186.641,-39.1181 190.737,-44.7944"/>
</g>
<!-- 10 -->
<g id="node11" class="node"><title>10</title>
<path fill="none" stroke="#59d856" stroke-width="2" d="M183.5,-468C183.5,-468 153.5,-468 153.5,-468 147.5,-468 141.5,-462 141.5,-456 141.5,-456 141.5,-444 141.5,-444 141.5,-438 147.5,-432 153.5,-432 153.5,-432 183.5,-432 183.5,-432 189.5,-432 195.5,-438 195.5,-444 195.5,-444 195.5,-456 195.5,-456 195.5,-462 189.5,-468 183.5,-468"/>
<text text-anchor="middle" x="168.5" y="-447.5" font-family="sans" font-size="10.00">fastp</text>
</g>
<!-- 10&#45;&gt;1 -->
<g id="edge10" class="edge"><title>10&#45;&gt;1</title>
<path fill="none" stroke="grey" stroke-width="2" d="M160.102,-431.966C136.451,-383.994 69.1571,-247.496 40.5861,-189.543"/>
<polygon fill="grey" stroke="grey" stroke-width="2" points="43.5934,-187.728 36.0322,-180.306 37.3149,-190.823 43.5934,-187.728"/>
</g>
<!-- 11 -->
<g id="node12" class="node"><title>11</title>
<path fill="none" stroke="#56d87b" stroke-width="2" d="M310.5,-396C310.5,-396 280.5,-396 280.5,-396 274.5,-396 268.5,-390 268.5,-384 268.5,-384 268.5,-372 268.5,-372 268.5,-366 274.5,-360 280.5,-360 280.5,-360 310.5,-360 310.5,-360 316.5,-360 322.5,-366 322.5,-372 322.5,-372 322.5,-384 322.5,-384 322.5,-390 316.5,-396 310.5,-396"/>
<text text-anchor="middle" x="295.5" y="-375.5" font-family="sans" font-size="10.00">shovill</text>
</g>
<!-- 10&#45;&gt;11 -->
<g id="edge22" class="edge"><title>10&#45;&gt;11</title>
<path fill="none" stroke="grey" stroke-width="2" d="M195.745,-433.983C214.327,-423.741 239.138,-410.066 259.367,-398.916"/>
<polygon fill="grey" stroke="grey" stroke-width="2" points="261.232,-401.884 268.3,-393.992 257.853,-395.754 261.232,-401.884"/>
</g>
<!-- 11&#45;&gt;2 -->
<g id="edge11" class="edge"><title>11&#45;&gt;2</title>
<path fill="none" stroke="grey" stroke-width="2" d="M275.203,-359.988C263.521,-349.901 248.771,-336.651 236.5,-324 192.301,-278.434 145.546,-220.682 120,-188.19"/>
<polygon fill="grey" stroke="grey" stroke-width="2" points="122.596,-185.829 113.676,-180.111 117.084,-190.143 122.596,-185.829"/>
</g>
<!-- 11&#45;&gt;3 -->
<g id="edge12" class="edge"><title>11&#45;&gt;3</title>
<path fill="none" stroke="grey" stroke-width="2" d="M309.166,-359.623C316.536,-349.631 325.353,-336.595 331.5,-324 366.109,-253.085 389.971,-162.458 400.467,-118.025"/>
<polygon fill="grey" stroke="grey" stroke-width="2" points="403.939,-118.546 402.79,-108.014 397.12,-116.964 403.939,-118.546"/>
</g>
<!-- 11&#45;&gt;4 -->
<g id="edge13" class="edge"><title>11&#45;&gt;4</title>
<path fill="none" stroke="grey" stroke-width="2" d="M322.749,-366.747C343.35,-357.915 371.275,-343.502 390.5,-324 408.027,-306.221 420.893,-280.73 428.869,-261.582"/>
<polygon fill="grey" stroke="grey" stroke-width="2" points="432.148,-262.807 432.592,-252.221 425.644,-260.219 432.148,-262.807"/>
</g>
<!-- 11&#45;&gt;5 -->
<g id="edge14" class="edge"><title>11&#45;&gt;5</title>
<path fill="none" stroke="grey" stroke-width="2" d="M283.045,-359.626C275.894,-349.417 266.894,-336.167 259.5,-324 231.39,-277.741 202.161,-221.744 185.754,-189.46"/>
<polygon fill="grey" stroke="grey" stroke-width="2" points="188.726,-187.582 181.089,-180.239 182.48,-190.743 188.726,-187.582"/>
</g>
<!-- 11&#45;&gt;6 -->
<g id="edge15" class="edge"><title>11&#45;&gt;6</title>
<path fill="none" stroke="grey" stroke-width="2" d="M322.753,-367.267C357.128,-354.99 416.368,-333.833 454.728,-320.133"/>
<polygon fill="grey" stroke="grey" stroke-width="2" points="456.238,-323.31 464.479,-316.651 453.884,-316.718 456.238,-323.31"/>
</g>
<!-- 12 -->
<g id="node13" class="node"><title>12</title>
<path fill="none" stroke="#d87d56" stroke-width="2" d="M310.5,-324C310.5,-324 280.5,-324 280.5,-324 274.5,-324 268.5,-318 268.5,-312 268.5,-312 268.5,-300 268.5,-300 268.5,-294 274.5,-288 280.5,-288 280.5,-288 310.5,-288 310.5,-288 316.5,-288 322.5,-294 322.5,-300 322.5,-300 322.5,-312 322.5,-312 322.5,-318 316.5,-324 310.5,-324"/>
<text text-anchor="middle" x="295.5" y="-303.5" font-family="sans" font-size="10.00">snippy</text>
</g>
<!-- 11&#45;&gt;12 -->
<g id="edge23" class="edge"><title>11&#45;&gt;12</title>
<path fill="none" stroke="grey" stroke-width="2" d="M295.5,-359.697C295.5,-351.983 295.5,-342.712 295.5,-334.112"/>
<polygon fill="grey" stroke="grey" stroke-width="2" points="299,-334.104 295.5,-324.104 292,-334.104 299,-334.104"/>
</g>
<!-- 12&#45;&gt;7 -->
<g id="edge16" class="edge"><title>12&#45;&gt;7</title>
<path fill="none" stroke="grey" stroke-width="2" d="M299.965,-287.637C307.004,-258.156 319.4,-196.403 314.5,-144 313.703,-135.478 312.2,-126.285 310.597,-117.986"/>
<polygon fill="grey" stroke="grey" stroke-width="2" points="314.001,-117.161 308.559,-108.071 307.145,-118.571 314.001,-117.161"/>
</g>
<!-- 13 -->
<g id="node14" class="node"><title>13</title>
<path fill="none" stroke="#56c9d8" stroke-width="2" d="M285,-252C285,-252 254,-252 254,-252 248,-252 242,-246 242,-240 242,-240 242,-228 242,-228 242,-222 248,-216 254,-216 254,-216 285,-216 285,-216 291,-216 297,-222 297,-228 297,-228 297,-240 297,-240 297,-246 291,-252 285,-252"/>
<text text-anchor="middle" x="269.5" y="-231.5" font-family="sans" font-size="10.00">bamcov</text>
</g>
<!-- 12&#45;&gt;13 -->
<g id="edge24" class="edge"><title>12&#45;&gt;13</title>
<path fill="none" stroke="grey" stroke-width="2" d="M289.073,-287.697C286.145,-279.813 282.613,-270.304 279.36,-261.546"/>
<polygon fill="grey" stroke="grey" stroke-width="2" points="282.616,-260.26 275.853,-252.104 276.054,-262.697 282.616,-260.26"/>
</g>
<!-- 13&#45;&gt;8 -->
<g id="edge17" class="edge"><title>13&#45;&gt;8</title>
<path fill="none" stroke="grey" stroke-width="2" d="M267.522,-215.697C266.641,-207.983 265.581,-198.712 264.599,-190.112"/>
<polygon fill="grey" stroke="grey" stroke-width="2" points="268.068,-189.642 263.455,-180.104 261.113,-190.437 268.068,-189.642"/>
</g>
</g>
</svg>
