<?xml version="1.0" encoding="UTF-8" standalone="no"?>
<!DOCTYPE svg PUBLIC "-//W3C//DTD SVG 1.1//EN"
 "http://www.w3.org/Graphics/SVG/1.1/DTD/svg11.dtd">
<!-- Generated by graphviz version 2.38.0 (20140413.2041)
 -->
<!-- Title: snakemake_dag Pages: 1 -->
<svg width="634pt" height="476pt"
 viewBox="0.00 0.00 633.50 476.00" xmlns="http://www.w3.org/2000/svg" xmlns:xlink="http://www.w3.org/1999/xlink">
<g id="graph0" class="graph" transform="scale(1 1) rotate(0) translate(4 472)">
<title>snakemake_dag</title>
<polygon fill="white" stroke="none" points="-4,4 -4,-472 629.5,-472 629.5,4 -4,4"/>
<!-- 0 -->
<g id="node1" class="node"><title>0</title>
<path fill="none" stroke="#d89556" stroke-width="2" d="M325.5,-36C325.5,-36 295.5,-36 295.5,-36 289.5,-36 283.5,-30 283.5,-24 283.5,-24 283.5,-12 283.5,-12 283.5,-6 289.5,-0 295.5,-0 295.5,-0 325.5,-0 325.5,-0 331.5,-0 337.5,-6 337.5,-12 337.5,-12 337.5,-24 337.5,-24 337.5,-30 331.5,-36 325.5,-36"/>
<text text-anchor="middle" x="310.5" y="-15.5" font-family="sans" font-size="10.00">all</text>
</g>
<!-- 1 -->
<g id="node2" class="node"><title>1</title>
<path fill="none" stroke="#569ad8" stroke-width="2" d="M43,-180C43,-180 12,-180 12,-180 6,-180 0,-174 0,-168 0,-168 0,-156 0,-156 0,-150 6,-144 12,-144 12,-144 43,-144 43,-144 49,-144 55,-150 55,-156 55,-156 55,-168 55,-168 55,-174 49,-180 43,-180"/>
<text text-anchor="middle" x="27.5" y="-159.5" font-family="sans" font-size="10.00">kraken2</text>
</g>
<!-- 1&#45;&gt;0 -->
<g id="edge9" class="edge"><title>1&#45;&gt;0</title>
<path fill="none" stroke="grey" stroke-width="2" d="M38.306,-143.836C51.9539,-123.59 77.334,-90.3704 107.5,-72 159.663,-40.2338 230.582,-27.3431 273.308,-22.2294"/>
<polygon fill="grey" stroke="grey" stroke-width="2" points="273.726,-25.7047 283.276,-21.1169 272.949,-18.7479 273.726,-25.7047"/>
</g>
<!-- 10 -->
<g id="node11" class="node"><title>10</title>
<path fill="none" stroke="#567bd8" stroke-width="2" d="M191.5,-108C191.5,-108 153.5,-108 153.5,-108 147.5,-108 141.5,-102 141.5,-96 141.5,-96 141.5,-84 141.5,-84 141.5,-78 147.5,-72 153.5,-72 153.5,-72 191.5,-72 191.5,-72 197.5,-72 203.5,-78 203.5,-84 203.5,-84 203.5,-96 203.5,-96 203.5,-102 197.5,-108 191.5,-108"/>
<text text-anchor="middle" x="172.5" y="-87.5" font-family="sans" font-size="10.00">summary</text>
</g>
<!-- 1&#45;&gt;10 -->
<g id="edge20" class="edge"><title>1&#45;&gt;10</title>
<path fill="none" stroke="grey" stroke-width="2" d="M55.1147,-147.669C76.9729,-137.117 107.805,-122.232 132.386,-110.365"/>
<polygon fill="grey" stroke="grey" stroke-width="2" points="133.985,-113.48 141.469,-105.981 130.942,-107.176 133.985,-113.48"/>
</g>
<!-- 2 -->
<g id="node3" class="node"><title>2</title>
<path fill="none" stroke="#78d856" stroke-width="2" d="M187.5,-180C187.5,-180 157.5,-180 157.5,-180 151.5,-180 145.5,-174 145.5,-168 145.5,-168 145.5,-156 145.5,-156 145.5,-150 151.5,-144 157.5,-144 157.5,-144 187.5,-144 187.5,-144 193.5,-144 199.5,-150 199.5,-156 199.5,-156 199.5,-168 199.5,-168 199.5,-174 193.5,-180 187.5,-180"/>
<text text-anchor="middle" x="172.5" y="-159.5" font-family="sans" font-size="10.00">quast</text>
</g>
<!-- 2&#45;&gt;0 -->
<g id="edge4" class="edge"><title>2&#45;&gt;0</title>
<path fill="none" stroke="grey" stroke-width="2" d="M189.146,-143.871C213.494,-118.817 258.942,-72.0519 286.781,-43.4062"/>
<polygon fill="grey" stroke="grey" stroke-width="2" points="289.336,-45.7999 293.795,-36.1893 284.316,-40.9214 289.336,-45.7999"/>
</g>
<!-- 2&#45;&gt;10 -->
<g id="edge21" class="edge"><title>2&#45;&gt;10</title>
<path fill="none" stroke="grey" stroke-width="2" d="M172.5,-143.697C172.5,-135.983 172.5,-126.712 172.5,-118.112"/>
<polygon fill="grey" stroke="grey" stroke-width="2" points="176,-118.104 172.5,-108.104 169,-118.104 176,-118.104"/>
</g>
<!-- 3 -->
<g id="node4" class="node"><title>3</title>
<path fill="none" stroke="#59d856" stroke-width="2" d="M458.5,-108C458.5,-108 426.5,-108 426.5,-108 420.5,-108 414.5,-102 414.5,-96 414.5,-96 414.5,-84 414.5,-84 414.5,-78 420.5,-72 426.5,-72 426.5,-72 458.5,-72 458.5,-72 464.5,-72 470.5,-78 470.5,-84 470.5,-84 470.5,-96 470.5,-96 470.5,-102 464.5,-108 458.5,-108"/>
<text text-anchor="middle" x="442.5" y="-87.5" font-family="sans" font-size="10.00">abricate</text>
</g>
<!-- 3&#45;&gt;0 -->
<g id="edge6" class="edge"><title>3&#45;&gt;0</title>
<path fill="none" stroke="grey" stroke-width="2" d="M414.183,-73.9832C394.518,-63.555 368.142,-49.5675 346.914,-38.3104"/>
<polygon fill="grey" stroke="grey" stroke-width="2" points="348.341,-35.1056 337.867,-33.5127 345.062,-41.2899 348.341,-35.1056"/>
</g>
<!-- 4 -->
<g id="node5" class="node"><title>4</title>
<path fill="none" stroke="#d8b456" stroke-width="2" d="M546,-108C546,-108 507,-108 507,-108 501,-108 495,-102 495,-96 495,-96 495,-84 495,-84 495,-78 501,-72 507,-72 507,-72 546,-72 546,-72 552,-72 558,-78 558,-84 558,-84 558,-96 558,-96 558,-102 552,-108 546,-108"/>
<text text-anchor="middle" x="526.5" y="-87.5" font-family="sans" font-size="10.00">amrfinder</text>
</g>
<!-- 4&#45;&gt;0 -->
<g id="edge2" class="edge"><title>4&#45;&gt;0</title>
<path fill="none" stroke="grey" stroke-width="2" d="M494.964,-77.3817C489.809,-75.5437 484.515,-73.6925 479.5,-72 434.155,-56.6971 381.482,-40.4118 347.15,-29.9948"/>
<polygon fill="grey" stroke="grey" stroke-width="2" points="348.129,-26.6344 337.544,-27.088 346.102,-33.3344 348.129,-26.6344"/>
</g>
<!-- 5 -->
<g id="node6" class="node"><title>5</title>
<path fill="none" stroke="#56d87b" stroke-width="2" d="M115.5,-180C115.5,-180 85.5,-180 85.5,-180 79.5,-180 73.5,-174 73.5,-168 73.5,-168 73.5,-156 73.5,-156 73.5,-150 79.5,-144 85.5,-144 85.5,-144 115.5,-144 115.5,-144 121.5,-144 127.5,-150 127.5,-156 127.5,-156 127.5,-168 127.5,-168 127.5,-174 121.5,-180 115.5,-180"/>
<text text-anchor="middle" x="100.5" y="-159.5" font-family="sans" font-size="10.00">mlst</text>
</g>
<!-- 5&#45;&gt;0 -->
<g id="edge5" class="edge"><title>5&#45;&gt;0</title>
<path fill="none" stroke="grey" stroke-width="2" d="M102.09,-143.756C104.851,-123.746 112.339,-91.0672 132.5,-72 170.993,-35.5954 233.405,-24.089 273.172,-20.5165"/>
<polygon fill="grey" stroke="grey" stroke-width="2" points="273.557,-23.9973 283.258,-19.7368 273.018,-17.0181 273.557,-23.9973"/>
</g>
<!-- 5&#45;&gt;10 -->
<g id="edge23" class="edge"><title>5&#45;&gt;10</title>
<path fill="none" stroke="grey" stroke-width="2" d="M118.298,-143.697C127.104,-135.135 137.882,-124.656 147.501,-115.304"/>
<polygon fill="grey" stroke="grey" stroke-width="2" points="150.177,-117.585 154.907,-108.104 145.297,-112.566 150.177,-117.585"/>
</g>
<!-- 6 -->
<g id="node7" class="node"><title>6</title>
<path fill="none" stroke="#d87556" stroke-width="2" d="M613.5,-324C613.5,-324 583.5,-324 583.5,-324 577.5,-324 571.5,-318 571.5,-312 571.5,-312 571.5,-300 571.5,-300 571.5,-294 577.5,-288 583.5,-288 583.5,-288 613.5,-288 613.5,-288 619.5,-288 625.5,-294 625.5,-300 625.5,-300 625.5,-312 625.5,-312 625.5,-318 619.5,-324 613.5,-324"/>
<text text-anchor="middle" x="598.5" y="-303.5" font-family="sans" font-size="10.00">prokka</text>
</g>
<!-- 6&#45;&gt;0 -->
<g id="edge1" class="edge"><title>6&#45;&gt;0</title>
<path fill="none" stroke="grey" stroke-width="2" d="M602.146,-287.92C610.165,-245.254 624.375,-133.07 567.5,-72 538.089,-40.4198 411.457,-26.5547 347.608,-21.4803"/>
<polygon fill="grey" stroke="grey" stroke-width="2" points="347.794,-17.9843 337.556,-20.713 347.261,-24.964 347.794,-17.9843"/>
</g>
<!-- 7 -->
<g id="node8" class="node"><title>7</title>
<path fill="none" stroke="#d6d856" stroke-width="2" d="M305.5,-252C305.5,-252 217.5,-252 217.5,-252 211.5,-252 205.5,-246 205.5,-240 205.5,-240 205.5,-228 205.5,-228 205.5,-222 211.5,-216 217.5,-216 217.5,-216 305.5,-216 305.5,-216 311.5,-216 317.5,-222 317.5,-228 317.5,-228 317.5,-240 317.5,-240 317.5,-246 311.5,-252 305.5,-252"/>
<text text-anchor="middle" x="261.5" y="-231.5" font-family="sans" font-size="10.00">kraken2_unmapped</text>
</g>
<!-- 7&#45;&gt;0 -->
<g id="edge3" class="edge"><title>7&#45;&gt;0</title>
<path fill="none" stroke="grey" stroke-width="2" d="M285.977,-215.768C296.904,-206.555 308.624,-194.186 314.5,-180 332.748,-135.946 324.908,-79.1361 317.64,-46.1172"/>
<polygon fill="grey" stroke="grey" stroke-width="2" points="321.024,-45.2165 315.334,-36.279 314.208,-46.8139 321.024,-45.2165"/>
</g>
<!-- 8 -->
<g id="node9" class="node"><title>8</title>
<path fill="none" stroke="#56d89a" stroke-width="2" d="M465,-252C465,-252 348,-252 348,-252 342,-252 336,-246 336,-240 336,-240 336,-228 336,-228 336,-222 342,-216 348,-216 348,-216 465,-216 465,-216 471,-216 477,-222 477,-228 477,-228 477,-240 477,-240 477,-246 471,-252 465,-252"/>
<text text-anchor="middle" x="406.5" y="-231.5" font-family="sans" font-size="10.00">kraken2_unmapped_strict</text>
</g>
<!-- 8&#45;&gt;0 -->
<g id="edge7" class="edge"><title>8&#45;&gt;0</title>
<path fill="none" stroke="grey" stroke-width="2" d="M399.829,-215.866C388.158,-186.21 362.943,-123.541 338.5,-72 334.353,-63.2555 329.524,-53.8698 325.055,-45.4629"/>
<polygon fill="grey" stroke="grey" stroke-width="2" points="328.039,-43.6217 320.219,-36.4734 321.875,-46.9381 328.039,-43.6217"/>
</g>
<!-- 9 -->
<g id="node10" class="node"><title>9</title>
<path fill="none" stroke="#56d8d8" stroke-width="2" d="M293.5,-180C293.5,-180 229.5,-180 229.5,-180 223.5,-180 217.5,-174 217.5,-168 217.5,-168 217.5,-156 217.5,-156 217.5,-150 223.5,-144 229.5,-144 229.5,-144 293.5,-144 293.5,-144 299.5,-144 305.5,-150 305.5,-156 305.5,-156 305.5,-168 305.5,-168 305.5,-174 299.5,-180 293.5,-180"/>
<text text-anchor="middle" x="261.5" y="-159.5" font-family="sans" font-size="10.00">print_coverage</text>
</g>
<!-- 9&#45;&gt;0 -->
<g id="edge8" class="edge"><title>9&#45;&gt;0</title>
<path fill="none" stroke="grey" stroke-width="2" d="M267.411,-143.871C275.798,-119.564 291.239,-74.8187 301.179,-46.0132"/>
<polygon fill="grey" stroke="grey" stroke-width="2" points="304.615,-46.784 304.568,-36.1893 297.998,-44.5006 304.615,-46.784"/>
</g>
<!-- 9&#45;&gt;10 -->
<g id="edge22" class="edge"><title>9&#45;&gt;10</title>
<path fill="none" stroke="grey" stroke-width="2" d="M239.5,-143.697C228.291,-134.881 214.498,-124.032 202.346,-114.474"/>
<polygon fill="grey" stroke="grey" stroke-width="2" points="204.271,-111.535 194.247,-108.104 199.943,-117.038 204.271,-111.535"/>
</g>
<!-- 10&#45;&gt;0 -->
<g id="edge10" class="edge"><title>10&#45;&gt;0</title>
<path fill="none" stroke="grey" stroke-width="2" d="M203.814,-73.1159C224.689,-62.5273 252.202,-48.5714 274.059,-37.4843"/>
<polygon fill="grey" stroke="grey" stroke-width="2" points="275.71,-40.5717 283.045,-32.9265 272.543,-34.3289 275.71,-40.5717"/>
</g>
<!-- 11 -->
<g id="node12" class="node"><title>11</title>
<path fill="none" stroke="#56b9d8" stroke-width="2" d="M187.5,-468C187.5,-468 157.5,-468 157.5,-468 151.5,-468 145.5,-462 145.5,-456 145.5,-456 145.5,-444 145.5,-444 145.5,-438 151.5,-432 157.5,-432 157.5,-432 187.5,-432 187.5,-432 193.5,-432 199.5,-438 199.5,-444 199.5,-444 199.5,-456 199.5,-456 199.5,-462 193.5,-468 187.5,-468"/>
<text text-anchor="middle" x="172.5" y="-447.5" font-family="sans" font-size="10.00">fastp</text>
</g>
<!-- 11&#45;&gt;1 -->
<g id="edge11" class="edge"><title>11&#45;&gt;1</title>
<path fill="none" stroke="grey" stroke-width="2" d="M163.864,-431.966C139.542,-383.994 70.3389,-247.496 40.9573,-189.543"/>
<polygon fill="grey" stroke="grey" stroke-width="2" points="43.918,-187.643 36.2743,-180.306 37.6745,-190.808 43.918,-187.643"/>
</g>
<!-- 12 -->
<g id="node13" class="node"><title>12</title>
<path fill="none" stroke="#97d856" stroke-width="2" d="M333.5,-396C333.5,-396 303.5,-396 303.5,-396 297.5,-396 291.5,-390 291.5,-384 291.5,-384 291.5,-372 291.5,-372 291.5,-366 297.5,-360 303.5,-360 303.5,-360 333.5,-360 333.5,-360 339.5,-360 345.5,-366 345.5,-372 345.5,-372 345.5,-384 345.5,-384 345.5,-390 339.5,-396 333.5,-396"/>
<text text-anchor="middle" x="318.5" y="-375.5" font-family="sans" font-size="10.00">shovill</text>
</g>
<!-- 11&#45;&gt;12 -->
<g id="edge24" class="edge"><title>11&#45;&gt;12</title>
<path fill="none" stroke="grey" stroke-width="2" d="M199.619,-435.998C222.828,-424.87 256.442,-408.754 282.009,-396.496"/>
<polygon fill="grey" stroke="grey" stroke-width="2" points="283.526,-399.65 291.03,-392.17 280.5,-393.338 283.526,-399.65"/>
</g>
<!-- 12&#45;&gt;2 -->
<g id="edge12" class="edge"><title>12&#45;&gt;2</title>
<path fill="none" stroke="grey" stroke-width="2" d="M291.421,-369.355C246.356,-354.969 157.468,-319.109 122.5,-252 115.106,-237.811 116.593,-230.87 122.5,-216 126.791,-205.199 134.442,-195.324 142.488,-187.102"/>
<polygon fill="grey" stroke="grey" stroke-width="2" points="145.078,-189.469 149.904,-180.037 140.25,-184.401 145.078,-189.469"/>
</g>
<!-- 12&#45;&gt;3 -->
<g id="edge13" class="edge"><title>12&#45;&gt;3</title>
<path fill="none" stroke="grey" stroke-width="2" d="M345.645,-367.628C386.892,-351.596 463.036,-314.448 486.5,-252 503.939,-205.587 478.409,-149.291 459.559,-117.059"/>
<polygon fill="grey" stroke="grey" stroke-width="2" points="462.396,-114.988 454.22,-108.25 456.41,-118.616 462.396,-114.988"/>
</g>
<!-- 12&#45;&gt;4 -->
<g id="edge14" class="edge"><title>12&#45;&gt;4</title>
<path fill="none" stroke="grey" stroke-width="2" d="M345.556,-372.724C376.606,-366.62 427.595,-352.793 461.5,-324 522.657,-272.065 528.734,-167.877 527.881,-118.354"/>
<polygon fill="grey" stroke="grey" stroke-width="2" points="531.372,-117.998 527.589,-108.102 524.375,-118.197 531.372,-117.998"/>
</g>
<!-- 12&#45;&gt;5 -->
<g id="edge15" class="edge"><title>12&#45;&gt;5</title>
<path fill="none" stroke="grey" stroke-width="2" d="M291.253,-375.247C254.509,-371.533 188.92,-359.969 147.5,-324 108.847,-290.434 101.118,-227.036 100.068,-190.613"/>
<polygon fill="grey" stroke="grey" stroke-width="2" points="103.563,-190.191 99.9299,-180.239 96.5635,-190.284 103.563,-190.191"/>
</g>
<!-- 12&#45;&gt;6 -->
<g id="edge16" class="edge"><title>12&#45;&gt;6</title>
<path fill="none" stroke="grey" stroke-width="2" d="M345.788,-372.553C390.6,-364.894 482.314,-347.723 557.5,-324 558.924,-323.551 560.367,-323.072 561.818,-322.571"/>
<polygon fill="grey" stroke="grey" stroke-width="2" points="563.242,-325.776 571.399,-319.015 560.806,-319.214 563.242,-325.776"/>
</g>
<!-- 13 -->
<g id="node14" class="node"><title>13</title>
<path fill="none" stroke="#b6d856" stroke-width="2" d="M276.5,-324C276.5,-324 246.5,-324 246.5,-324 240.5,-324 234.5,-318 234.5,-312 234.5,-312 234.5,-300 234.5,-300 234.5,-294 240.5,-288 246.5,-288 246.5,-288 276.5,-288 276.5,-288 282.5,-288 288.5,-294 288.5,-300 288.5,-300 288.5,-312 288.5,-312 288.5,-318 282.5,-324 276.5,-324"/>
<text text-anchor="middle" x="261.5" y="-303.5" font-family="sans" font-size="10.00">snippy</text>
</g>
<!-- 12&#45;&gt;13 -->
<g id="edge25" class="edge"><title>12&#45;&gt;13</title>
<path fill="none" stroke="grey" stroke-width="2" d="M304.41,-359.697C297.577,-351.305 289.243,-341.07 281.744,-331.861"/>
<polygon fill="grey" stroke="grey" stroke-width="2" points="284.456,-329.649 275.428,-324.104 279.028,-334.069 284.456,-329.649"/>
</g>
<!-- 14 -->
<g id="node15" class="node"><title>14</title>
<path fill="none" stroke="#56d8b9" stroke-width="2" d="M403,-324C403,-324 350,-324 350,-324 344,-324 338,-318 338,-312 338,-312 338,-300 338,-300 338,-294 344,-288 350,-288 350,-288 403,-288 403,-288 409,-288 415,-294 415,-300 415,-300 415,-312 415,-312 415,-318 409,-324 403,-324"/>
<text text-anchor="middle" x="376.5" y="-303.5" font-family="sans" font-size="10.00">snippy_strict</text>
</g>
<!-- 12&#45;&gt;14 -->
<g id="edge26" class="edge"><title>12&#45;&gt;14</title>
<path fill="none" stroke="grey" stroke-width="2" d="M332.837,-359.697C339.791,-351.305 348.27,-341.07 355.901,-331.861"/>
<polygon fill="grey" stroke="grey" stroke-width="2" points="358.643,-334.038 362.328,-324.104 353.253,-329.571 358.643,-334.038"/>
</g>
<!-- 13&#45;&gt;7 -->
<g id="edge17" class="edge"><title>13&#45;&gt;7</title>
<path fill="none" stroke="grey" stroke-width="2" d="M261.5,-287.697C261.5,-279.983 261.5,-270.712 261.5,-262.112"/>
<polygon fill="grey" stroke="grey" stroke-width="2" points="265,-262.104 261.5,-252.104 258,-262.104 265,-262.104"/>
</g>
<!-- 15 -->
<g id="node16" class="node"><title>15</title>
<path fill="none" stroke="#d85656" stroke-width="2" d="M175,-252C175,-252 144,-252 144,-252 138,-252 132,-246 132,-240 132,-240 132,-228 132,-228 132,-222 138,-216 144,-216 144,-216 175,-216 175,-216 181,-216 187,-222 187,-228 187,-228 187,-240 187,-240 187,-246 181,-252 175,-252"/>
<text text-anchor="middle" x="159.5" y="-231.5" font-family="sans" font-size="10.00">bamcov</text>
</g>
<!-- 13&#45;&gt;15 -->
<g id="edge27" class="edge"><title>13&#45;&gt;15</title>
<path fill="none" stroke="grey" stroke-width="2" d="M236.548,-287.876C223.458,-278.893 207.24,-267.763 193.064,-258.034"/>
<polygon fill="grey" stroke="grey" stroke-width="2" points="194.774,-254.962 184.548,-252.19 190.813,-260.734 194.774,-254.962"/>
</g>
<!-- 14&#45;&gt;8 -->
<g id="edge18" class="edge"><title>14&#45;&gt;8</title>
<path fill="none" stroke="grey" stroke-width="2" d="M383.916,-287.697C387.294,-279.813 391.37,-270.304 395.123,-261.546"/>
<polygon fill="grey" stroke="grey" stroke-width="2" points="398.447,-262.675 399.17,-252.104 392.013,-259.917 398.447,-262.675"/>
</g>
<!-- 15&#45;&gt;9 -->
<g id="edge19" class="edge"><title>15&#45;&gt;9</title>
<path fill="none" stroke="grey" stroke-width="2" d="M184.452,-215.876C197.542,-206.893 213.76,-195.763 227.936,-186.034"/>
<polygon fill="grey" stroke="grey" stroke-width="2" points="230.187,-188.734 236.452,-180.19 226.226,-182.962 230.187,-188.734"/>
</g>
</g>
</svg>
